<svg xmlns="http://www.w3.org/2000/svg" width="15" height="15" viewBox="0 0 15 15">
  <metadata><?xpacket begin="﻿" id="W5M0MpCehiHzreSzNTczkc9d"?>
<x:xmpmeta xmlns:x="adobe:ns:meta/" x:xmptk="Adobe XMP Core 5.6-c142 79.160924, 2017/07/13-01:06:39        ">
   <rdf:RDF xmlns:rdf="http://www.w3.org/1999/02/22-rdf-syntax-ns#">
      <rdf:Description rdf:about=""/>
   </rdf:RDF>
</x:xmpmeta>
                                                                                                    
                                                                                                    
                                                                                                    
                                                                                                    
                                                                                                    
                                                                                                    
                                                                                                    
                                                                                                    
                                                                                                    
                                                                                                    
                                                                                                    
                                                                                                    
                                                                                                    
                                                                                                    
                                                                                                    
                                                                                                    
                                                                                                    
                                                                                                    
                                                                                                    
                                                                                                    
                           
<?xpacket end="w"?></metadata>
<defs>
    <style>
      .cls-1 {
        fill-rule: evenodd;
      }
    </style>
  </defs>
  <path id="Forma_1_копия_4" data-name="Forma 1 копия 4" class="cls-1" d="M1184.8,922.2a7.491,7.491,0,1,0,2.2,5.3A7.436,7.436,0,0,0,1184.8,922.2Zm-5.3,11.924a6.621,6.621,0,1,1,6.62-6.621A6.628,6.628,0,0,1,1179.5,934.121Zm3.58-9.027a0.437,0.437,0,0,0-.62,0l-3.88,3.88-2.04-2.043a0.439,0.439,0,1,0-.62.622l2.35,2.353a0.447,0.447,0,0,0,.31.129,0.43,0.43,0,0,0,.31-0.129l4.19-4.191A0.442,0.442,0,0,0,1183.08,925.094Z" transform="translate(-1172 -920)"/>
</svg>
